<svg enable-background="new 0 0 24 24" height="512" viewBox="0 0 24 24" width="512" xmlns="http://www.w3.org/2000/svg"><path d="m18.5 4c-.83 0-1.5.67-1.5 1.5v-2c0-.828-.671-1.5-1.5-1.5s-1.5.672-1.5 1.5v-1c0-.828-.671-1.5-1.5-1.5s-1.5.672-1.5 1.5v1c0-.828-.671-1.5-1.5-1.5s-1.5.672-1.5 1.5v6.5h-.513c-1.953 0-3.504 1.607-3.486 3.561.046 5.241 3.861 9.439 6.212 9.439h4.787c2.761 0 5-2.238 5-5v-12.5c0-.83-.67-1.5-1.5-1.5z" fill="#ffcc80"/><g fill="#ffa726"><path d="m17.5 4.39v9.11c-.28 0-.5-.22-.5-.5v-7.5c0-.44.19-.84.5-1.11z"/><path d="m14.5 2.39v10.36c-.28 0-.5-.22-.5-.5v-8.75c0-.44.19-.84.5-1.11z"/><path d="m11.5 1.39v10.61c-.28 0-.5-.22-.5-.5v-9c0-.44.19-.84.5-1.11z"/><path d="m8 10v2.5c0 .28-.22.5-.5.5s-.5-.22-.5-.5v-2.5z"/></g><path d="m11 2.495v.005c0-.002 0-.003 0-.005zm0-.005v.003c0-.001 0-.002 0-.003zm0-.005v.003c0-.001 0-.002 0-.003zm0-.005v.003c0-.001 0-.002 0-.003zm0-.005v.003c0-.001 0-.002 0-.003zm0-.005v.003c0-.001 0-.002 0-.003zm0-.005v.003c0-.001 0-.002 0-.003zm.001-.005v.003c-.001-.001-.001-.002 0-.003zm0-.005v.003c0-.001 0-.002 0-.003zm0-.005v.003c0-.001 0-.002 0-.003zm0-.005v.003c0-.001 0-.002 0-.003zm0-.005v.003c0-.001 0-.002 0-.003zm0-.006v.004c0-.001 0-.002 0-.004zm.001-.006v.005c0-.002 0-.003 0-.005zm0-.015c0 .005-.001.01-.001.015.001-.005.001-.01.001-.015zm.001-.005v.005c0-.002 0-.004 0-.005zm0-.005v.005c0-.002 0-.004 0-.005zm0-.005v.004c0-.001 0-.003 0-.004zm.001-.005v.004c0-.001 0-.003 0-.004zm0-.005v.004c0-.001 0-.003 0-.004zm.001-.005v.004c-.001-.002-.001-.003 0-.004zm0-.005v.004c0-.002 0-.003 0-.004zm0-.005v.005c0-.002 0-.004 0-.005zm.001-.006v.005c0-.002 0-.003 0-.005zm.994-1.282c-.543.192-.942.687-.994 1.282.034-.387.215-.734.494-.977v10.61c-.28 0-.5-.22-.5-.5v-9 1c0-.828-.671-1.5-1.5-1.5s-1.5.672-1.5 1.5v6.5 2.5c0 .28-.22.5-.5.5s-.5-.22-.5-.5v-2.466c-1.717.241-3.015 1.739-2.999 3.527.046 5.241 3.861 9.439 6.212 9.439h1.787z" fill="#deb26f"/><g fill="#de9121"><path d="m11.5 1.39c-.279.243-.46.59-.494.977v.005.005.001.004.001.004.001.004.001.004.001.004.001.005.005c0 .005-.001.01-.001.015v.005.001.004.002.003.002.003.002.003.002.003.002.003.002.003.002.003.002.003.002.003.002.003.002.003.002.005 9c0 .28.22.5.5.5v-10.61z"/><path d="m8 10h-1v.034 2.466c0 .28.22.5.5.5s.5-.22.5-.5z"/></g></svg>