<svg height="362pt" viewBox="-10 0 362 362.66667" width="362pt" xmlns="http://www.w3.org/2000/svg"><path d="m309.65625 42.667969c-17.707031 0-32 14.292969-32 32v-21.335938c0-17.664062-14.335938-32-32-32s-32 14.335938-32 32v-21.332031c0-17.664062-14.335938-32-32-32s-32 14.335938-32 32v10.667969c0-17.664063-14.335938-32-32-32s-32 14.335937-32 32v42.664062h-6.722656c-42.792969 0-77.609375 35.09375-78.527344 77.890625-2.902344 133.226563 81.132812 199.445313 132.457031 199.445313h102.125c58.902344 0 106.667969-47.765625 106.667969-106.667969v-181.332031c0-17.707031-14.296875-32-32-32zm0 0" fill="#ffcc80"/><g fill="#ffa726"><path d="m288.320312 50.988281v55.679688c-5.972656 0-10.664062-4.695313-10.664062-10.667969v-21.332031c0-9.386719 4.050781-17.921875 10.664062-23.679688zm0 0"/><path d="m224.320312 29.652344v77.015625c-5.972656 0-10.664062-4.695313-10.664062-10.667969v-42.667969c0-9.386719 4.050781-17.917969 10.664062-23.679687zm0 0"/><path d="m160.320312 8.320312v98.347657c-5.972656 0-10.664062-4.695313-10.664062-10.667969v-64c0-9.386719 4.050781-17.921875 10.664062-23.679688zm0 0"/><path d="m85.65625 85.332031v53.335938c0 5.972656-4.695312 10.664062-10.667969 10.664062-5.972656 0-10.667969-4.691406-10.667969-10.664062v-53.335938zm0 0"/></g></svg>