<svg xmlns="http://www.w3.org/2000/svg" xmlns:xlink="http://www.w3.org/1999/xlink" version="1.1" style="" xml:space="preserve" width="34.923076810216" height="32.46153840510806"><rect id="backgroundrect" width="100%" height="100%" x="0" y="0" fill="none" stroke="none" class="" style=""/>





















<g class="currentLayer" style=""><title>Layer 1</title><g id="svg_3" class="">
	<path style="fill:#C2C2C4;" d="M15.82029268107043,18.537379223780107 h-3.3472307266980654 c-0.07159313487090668,0 -0.12968483487782137,-0.05930208783802452 -0.12968483487782137,-0.13252201261762592 v-6.029388500094764 c0,-0.07321992477960156 -0.05809170000691339,-0.13252201261762592 -0.12968483487782137,-0.13252201261762592 h-2.092900054377528 c-0.11322255903488238,0 -0.20500862938219838,0.09379411851932448 -0.20500862938219838,0.20949370213799978 v8.053223528403658 c0,0.07315941244507283 0.05803248318733486,0.13252201261762592 0.12968483487782137,0.13252201261762592 h5.7748242453356085 c0.07165235169048548,0 0.12968483487782137,-0.05930208783802452 0.12968483487782137,-0.13252201261762592 v-1.8357626925940151 C15.949918299128672,18.59668131161815 15.891885815941336,18.537379223780107 15.82029268107043,18.537379223780107 z" id="svg_4"/>
	<path style="fill:#C2C2C4;" d="M22.236020564708618,19.80184496608962 c-0.4302694110603833,0.6672090005122993 -1.2245446120723449,1.0450480173088517 -2.216367123199561,1.0450480173088517 c-2.134233394443609,0 -3.5249996190739634,-1.737914247661275 -3.5249996190739634,-4.42091013599016 c0,-2.7220263440998282 1.5634424705224654,-4.399609794236093 4.1540006766411794,-4.399609794236093 c1.0324452493583507,0 1.9145982106254216,0.28295567625571627 2.5970128394528147,0.8149801214311313 c0.6294155753042684,0.5098769307379517 0.8967202988834825,1.0115846963145378 1.0224376068495151,1.940993642339241 c0.0193639000023047,0.14311167116013018 -0.08923974710542301,0.271276795691698 -0.23059029544028817,0.271276795691698 h-1.9926459788304265 c-0.1556218018533858,0 -0.2892149468234118,-0.10613863476315807 -0.33581858383201846,-0.2579035697608779 c-0.15289782815275443,-0.49783497616675865 -0.5787259777447183,-0.804269438219569 -1.1151711463100924,-0.804269438219569 c-0.9815780013400643,0 -1.5555666335184695,0.9268069156399763 -1.5555666335184695,2.4684191500904826 c0,1.5635176995498623 0.5963133731596586,2.50218503275744 1.5989725622698125,2.50218503275744 c0.7142732777608527,0 1.156504486376174,-0.3673098705885799 1.373238046034998,-1.1812612823327213 c0.036240693582295105,-0.1362132650238699 -0.06519771835638408,-0.2706716723464107 -0.20335055843398814,-0.2706716723464107 h-0.9552857334470289 c-0.19168484497694344,0 -0.347069779552011,-0.15878436580303637 -0.347069779552011,-0.3546627926721021 v-1.1342431984040013 c0,-0.15364081736810614 0.12192743151298203,-0.2782357141624855 0.2722789364238429,-0.2782357141624855 h3.3026404615551437 c0.12151291377593011,0 0.2200497015552416,0.10069252465558408 0.2200497015552416,0.2248638351082639 v4.515490914858354 c0,0.08544341635437795 -0.06780325841785574,0.15473003938962054 -0.15141740766328116,0.15473003938962054 h-1.7595093601482468 c-0.08438396789995142,0 -0.15277939451359632,-0.06989174638052893 -0.15277939451359632,-0.15612182308377826 L22.236020564708618,19.80184496608962 " id="svg_5"/>
</g><g id="svg_6" class="">
	<path style="fill:#B0B0B5;" d="M11.14742860471658,20.342550989247304 V12.56888750433702 c0,-0.11168318192381359 0.08526063882084389,-0.2022213262658142 0.1904337623211374,-0.2022213262658142 h-1.1334164276796619 c-0.10517312350029256,0 -0.1904337623211374,0.09053814434200297 -0.1904337623211374,0.2022213262658142 v7.773663484910304 c0,0.07061975258676292 0.053906726480275474,0.12792163619934663 0.12046503162428861,0.12792163619934663 h1.1334164276796619 C11.201335331196843,20.470472625446615 11.14742860471658,20.41317074183408 11.14742860471658,20.342550989247304 z" id="svg_7"/>
	<path style="fill:#B0B0B5;" d="M17.25858115421206,16.404492180606386 c0,-2.411994576976959 1.2244527871948179,-3.973281067375262 3.2865500956566014,-4.2134115908526635 c-0.18130262293774319,-0.021845978054135084 -0.36832595970604526,-0.03341149584750079 -0.5612900377599247,-0.03341149584750079 c-2.406385268706724,0 -3.8586764855763342,1.6192893144832152 -3.8586764855763342,4.246881498406187 c0,2.5898582218294703 1.291891202158917,4.267442418927724 3.274393578766663,4.267442418927724 c0.19648451733422917,0 0.3840029158763282,-0.017581923514156772 0.5622801613075206,-0.0499420086531698 C18.306186874433333,20.327831239328525 17.25858115421206,18.736287485208162 17.25858115421206,16.404492180606386 z" id="svg_8"/>
</g><g id="svg_14" class="">
</g><g id="svg_15" class="">
</g><g id="svg_16" class="">
</g><g id="svg_17" class="">
</g><g id="svg_18" class="">
</g><g id="svg_19" class="">
</g><g id="svg_20" class="">
</g><g id="svg_21" class="">
</g><g id="svg_22" class="">
</g><g id="svg_23" class="">
</g><g id="svg_24" class="">
</g><g id="svg_25" class="">
</g><g id="svg_26" class="">
</g><g id="svg_27" class="">
</g><g id="svg_28" class="">
</g></g></svg>