<svg xmlns:dc="http://purl.org/dc/elements/1.1/" xmlns:cc="http://web.resource.org/cc/" xmlns:rdf="http://www.w3.org/1999/02/22-rdf-syntax-ns#" xmlns:svg="http://www.w3.org/2000/svg" xmlns="http://www.w3.org/2000/svg" xmlns:sodipodi="http://sodipodi.sourceforge.net/DTD/sodipodi-0.dtd" xmlns:inkscape="http://www.inkscape.org/namespaces/inkscape" width="48.91891893285133" height="17.270270266787165" sodipodi:version="0.32" inkscape:version="0.44" version="1.0" sodipodi:docbase="R:\Logos" sodipodi:docname="Panasonic-Logo.svg" style=""><rect id="backgroundrect" width="100%" height="100%" x="0" y="0" fill="none" stroke="none" class="" style=""/>
  <defs id="defs24501"/>
  <sodipodi:namedview id="base" pagecolor="#ffffff" bordercolor="#666666" borderopacity="1.0" inkscape:pageopacity="0.0" inkscape:pageshadow="2" inkscape:zoom="0.35" inkscape:cx="350" inkscape:cy="520" inkscape:document-units="px" inkscape:current-layer="layer1" inkscape:window-width="925" inkscape:window-height="574" inkscape:window-x="242" inkscape:window-y="242" width="212.42809mm" height="37.5mm" units="mm"/>
  <metadata id="metadata24504">
    <rdf:RDF>
      <cc:Work rdf:about="">
        <dc:format>image/svg+xml</dc:format>
        <dc:type rdf:resource="http://purl.org/dc/dcmitype/StillImage"/>
      </cc:Work>
    </rdf:RDF>
  </metadata>
  
<g class="currentLayer" style=""><title>Layer 1</title><g inkscape:label="Ebene 1" inkscape:groupmode="layer" id="layer1" class="" fill="#dadada" fill-opacity="1">
    <g id="g24516" fill="#dadada" fill-opacity="1">
      <path style="font-size: 3.4942px; letter-spacing: 0px; word-spacing: 0.10098px; fill-rule: nonzero; stroke: none; stroke-width: 0.011; stroke-linecap: butt; stroke-linejoin: miter; stroke-miterlimit: 4; stroke-dasharray: none; font-family: fnt1, FranklinGothic, Arial;" d="M9.1250513369178,10.150055280361762 L9.1250513369178,5.737798700467583 L10.935106883402016,5.737798700467583 C11.545727508756094,5.744486298631754 12.134540682191552,5.777372376146879 12.543440039088923,6.338658646179056 C12.657931125757658,6.49695564375406 12.816037490377154,6.787911487337516 12.816037490377154,7.27617997124868 C12.816037490377154,7.890417790622616 12.554343952104993,8.259964100066988 12.374429013226303,8.432195474325843 C12.05276170868456,8.76161045764061 11.622056022209177,8.795053038177128 11.196801544014772,8.815118510003757 L10.406265231554933,8.815118510003757 L10.406265231554933,10.150055280361762 L9.1250513369178,10.150055280361762 zM10.896943187845762,7.7917599405535585 C11.10956949165914,7.786186878337362 11.34945670035329,7.774481573549471 11.502112604918874,7.615627308000482 C11.545727508756094,7.568806853801503 11.616603691587612,7.474608677429568 11.616603691587612,7.321328621525681 C11.61115136096604,7.169162719093478 11.545727508756094,7.074406127318639 11.507564935540437,7.027586820548576 C11.322197666040177,6.821911718324319 11.022338935757638,6.8453207979949005 10.77699977055546,6.8453207979949005 L10.422620352851972,6.8453207979949005 L10.422620352851972,7.7917599405535585 L10.896943187845762,7.7917599405535585 " class="ps023 ps14 ps23" id="path23367" fill="#dadada" fill-opacity="1"/>
      <path style="font-size: 3.4942px; letter-spacing: 0px; word-spacing: 0.10098px; fill-rule: nonzero; stroke: none; stroke-width: 0.011; stroke-linecap: butt; stroke-linejoin: miter; stroke-miterlimit: 4; stroke-dasharray: none; font-family: fnt1, FranklinGothic, Arial;" d="M14.893240402209228,10.15507107460397 L14.844172793636902,9.861328891150556 C14.680614098395845,9.992315168284449 14.380755368113311,10.248711983001913 13.841009055023097,10.248711983001913 C13.74832616850003,10.248711983001913 13.344880264564827,10.23589175978974 13.06682861208737,9.999002766448621 C12.946884820683525,9.892543164743712 12.739711221605258,9.636145967549947 12.739711221605258,9.211976304841842 C12.739711221605258,9.111647798279732 12.766969881804838,8.941088227942842 12.925077368764926,8.728724762601802 C13.14860833382143,8.422720006386504 13.41575457682869,8.33966948435217 13.759230081516103,8.257734645694734 L14.337138593708431,8.184159974076023 C14.402562071804855,8.165207508292152 14.47343825463638,8.146814987816384 14.549766768089471,8.134552032578199 C14.566122637613569,8.12786366946142 14.658805524136637,8.115043446249238 14.707873132708965,8.077698459989602 C14.75694036716774,8.040354238682568 14.795105185064592,7.896548885765412 14.795105185064592,7.827432357938625 C14.795105185064592,7.702579853281645 14.63699694987744,7.600578395368646 14.391658532902312,7.600578395368646 C14.17357989846737,7.600578395368646 14.069992350701176,7.681398315601809 14.015473533847894,7.762775503808965 C13.988212628967112,7.806252350164003 13.977308715951041,7.843597336423645 13.97185638532947,7.943926225462068 L12.876009760192613,7.937237479868987 C12.925077368764926,7.681398315601809 12.974145725564297,7.4751655629272555 13.154060664442998,7.262802862538822 C13.377591629499504,7.0064060478213515 13.731969924862398,6.844206644523215 14.424370646064059,6.844206644523215 C14.555217976370441,6.844206644523215 15.08951121061202,6.787911487337516 15.482053575644684,7.056570109864257 C15.640160688491243,7.163030858998074 15.74374823625745,7.288442544010566 15.814624044975435,7.456772659975189 C15.934567836379276,7.719300569835446 15.901856471444603,8.03700948340972 15.901856471444603,8.312357998958458 L15.901856471444603,9.193026133915785 C15.89640414082303,9.742606716683765 15.934567836379276,9.8423787202245 16.032702679410374,10.15507107460397 L14.893240402209228,10.15507107460397 zM14.778748941426935,8.738199465588524 C14.620640706239799,8.794494622774222 14.457082010998745,8.84465906729343 14.293523315757682,8.900954989431742 L14.17357989846737,8.938299975691377 C14.113608376878982,8.95056293092957 13.928241107378724,8.991809175483434 13.928241107378724,9.229255054322238 C13.928241107378724,9.335715420979753 13.988212628967112,9.529128715394748 14.22809946354773,9.529128715394748 C14.260810828482409,9.529128715394748 14.408014402426426,9.514636305784292 14.484342915879513,9.489554274762838 C14.702420427973859,9.42712725748174 14.718777793952087,9.282206221187694 14.778748941426935,9.21922270088522 L14.778748941426935,8.738199465588524 " class="ps023 ps14 ps23" id="path23369" fill="#dadada" fill-opacity="1"/>
      <path style="font-size: 3.4942px; letter-spacing: 0px; word-spacing: 0.10098px; fill-rule: nonzero; stroke: none; stroke-width: 0.011; stroke-linecap: butt; stroke-linejoin: miter; stroke-miterlimit: 4; stroke-dasharray: none; font-family: fnt1, FranklinGothic, Arial;" d="M18.191685312976507,10.158415829876809 L18.191685312976507,8.595509031095652 C18.191685312976507,8.781675164514647 18.24075292154883,7.985172470015945 18.077194226307764,7.906581239202427 C18.022674287113873,7.879269371332408 17.91908599112062,7.82520290356636 17.793690991435813,7.827990773341527 C17.651939748113364,7.830777113211471 17.493832261153262,7.90100779450993 17.439312321959385,8.029763469842646 C17.37934005214394,8.186945931469669 17.357533722565925,8.33130816988452 17.36298418261982,8.658493698827037 L17.36298418261982,10.159529983348484 L16.185358583975955,10.159529983348484 L16.185358583975955,6.924469679258692 L17.297560330409873,6.924469679258692 L17.31391657404751,7.30014670136955 C17.46657247861309,7.108965156184645 17.646487417491787,6.862042661977598 18.300724069023676,6.862042661977598 C18.780498486411968,6.862042661977598 19.145780694790933,7.033159882764777 19.292984268734944,7.529789681143594 C19.325695633669618,7.655201748632383 19.342051503193733,7.776711027921729 19.352955416209802,8.03422352601608 L19.352955416209802,10.158415829876809 L18.191685312976507,10.158415829876809 " class="ps023 ps14 ps23" id="path23371" fill="#dadada" fill-opacity="1"/>
      <path style="font-size: 3.4942px; letter-spacing: 0px; word-spacing: 0.10098px; fill-rule: nonzero; stroke: none; stroke-width: 0.011; stroke-linecap: butt; stroke-linejoin: miter; stroke-miterlimit: 4; stroke-dasharray: none; font-family: fnt1, FranklinGothic, Arial;" d="M24.734054634146876,7.859204664458372 C24.712247069994223,7.7360224338181505 24.62501486799318,7.532019517992155 24.325156362178753,7.532019517992155 C24.19430899446104,7.532019517992155 24.096173964373165,7.568249203351214 24.047106430623554,7.599463094468058 C24.01984552574277,7.611168399255957 23.976230397437437,7.691987937012816 23.976230397437437,7.784515074415392 C23.976230397437437,7.809039454986553 23.998037961590114,7.882614126605258 24.068913059492395,7.926090208007686 C24.11253009577675,7.951173003981745 24.216117531308893,7.981827714743089 24.336060162960774,7.995763238855853 L24.799478336711427,8.118944704543468 C25.126596737300076,8.20366779545238 25.4100990368882,8.263308855339833 25.639081472105172,8.497409596429488 C25.753574578986974,8.608328489355216 25.813545876107256,8.752133842272375 25.829901109638357,8.81065960125924 C25.884421011420883,8.977874416323278 25.857161041823936,9.108859546028263 25.857161041823936,9.164598200192577 C25.857161041823936,9.54584943194854 25.677246140356583,9.775492411722583 25.573657806951978,9.874148349410131 C25.350127739767945,10.083725857357527 24.995749369582356,10.242023619885133 24.346964899026617,10.242023619885133 C23.80721925934077,10.242023619885133 23.469196122686267,10.09710296606739 23.26747270307674,9.977265108223705 C22.836766866955948,9.721982446977922 22.814959284097604,9.252108395924044 22.787699336947487,9.10440063728374 L23.910806694872903,9.10049937898952 C23.921710495654917,9.211419036867856 23.93806569177466,9.294469176425883 24.02529789377571,9.37417456071107 C24.096173964373165,9.442176170113575 24.172500495024533,9.488996624312549 24.37422389592837,9.488996624312549 C24.614111067211166,9.488996624312549 24.750410802961827,9.37083095286713 24.755862235710904,9.263255285309034 C24.761314566332477,9.250435827049467 24.761314566332477,9.164041697171196 24.72860226611396,9.12112250126645 C24.67408236433144,9.028597658721692 24.52687980049397,8.98957972111118 24.314252598808107,8.933841066946862 C24.314252598808107,8.933841066946862 23.66001576021945,8.7900357140297 23.610948226469844,8.76606860143253 C23.463744701160593,8.696953985987259 22.86947917839787,8.560393499208264 22.86947917839787,7.882614126605258 C22.86947917839787,7.501362894849291 23.06029880844879,7.297917246997289 23.169337650916187,7.193129831690646 C23.371061070151587,7.01420856440981 23.703630925936135,6.8481090502463555 24.29789736527701,6.8481090502463555 C24.428743797710908,6.8481090502463555 24.98484556880034,6.841977190150962 25.39919527351754,7.131817732833836 C25.513686472420346,7.211523117119024 25.606370107170484,7.310180202235484 25.677246140356583,7.427230572780302 C25.775381207855816,7.593331234372671 25.791737376670756,7.7917599405535585 25.802642112736596,7.859204664458372 L24.734054634146876,7.859204664458372 " class="ps023 ps14 ps23" id="path23373" fill="#dadada" fill-opacity="1"/>
      <path style="font-size: 3.4942px; letter-spacing: 0px; word-spacing: 0.10098px; fill-rule: nonzero; stroke: none; stroke-width: 0.011; stroke-linecap: butt; stroke-linejoin: miter; stroke-miterlimit: 4; stroke-dasharray: none; font-family: fnt1, FranklinGothic, Arial;" d="M28.784871600647463,9.788311869982156 C28.5940527487527,9.986183308189055 28.201510009606494,10.24592487817936 27.552725314582645,10.24592487817936 C27.345549470823183,10.24592487817936 26.773093551131897,10.233662305417472 26.353291515793103,9.726441355722438 C26.17882711179102,9.510177397039774 25.966200845388993,9.151221091482721 25.966200845388993,8.507443097295413 C25.966200845388993,8.395965024014172 25.966200845388993,8.142356079071863 26.069788243509784,7.864220458700582 C26.304223982043485,7.15912960070386 26.942104689228568,6.837518281406437 27.612696836171033,6.8436489940729235 C27.792612523276787,6.8436489940729235 28.354165914172075,6.862042661977598 28.757611818107282,7.28286833436546 C28.959334957131652,7.493002345334247 29.215578409463436,7.876483413938759 29.210126078841864,8.557048743935413 C29.210126078841864,8.723707055978076 29.199222165825795,9.355223624832407 28.784871600647463,9.788311869982156 zM27.912556314680625,7.835236021955994 C27.80896876691443,7.7360224338181505 27.65086053172728,7.715955814562604 27.596340592533398,7.715955814562604 C27.460042802173106,7.715955814562604 27.36190571446082,7.796777647177278 27.329194349526134,7.821301262795835 C27.18744310620369,7.938910431219858 27.083855932551007,8.1178305510718 27.083855932551007,8.519704905104687 C27.083855932551007,8.835184364306706 27.154731741269007,9.363027288849775 27.590889010138895,9.363027288849775 C27.716284009823717,9.363027288849775 27.83622780122754,9.329584708313266 27.912556314680625,9.237058718339608 C28.01614274010623,9.119450697344485 28.12518336672106,8.907086084574537 28.119731036099502,8.535867971208194 C28.119731036099502,8.517474303303525 28.12518336672106,8.057632605686656 27.912556314680625,7.835236021955994 " class="ps023" id="path23381" fill="#dadada" fill-opacity="1"/>
      <path style="font-size: 3.4942px; letter-spacing: 0px; word-spacing: 0.10098px; fill-rule: nonzero; stroke: none; stroke-width: 0.011; stroke-linecap: butt; stroke-linejoin: miter; stroke-miterlimit: 4; stroke-dasharray: none; font-family: fnt1, FranklinGothic, Arial;" d="M32.781168815010915,6.913880057847692 L33.936987335849714,6.913880057847692 L33.936987335849714,10.163988892093009 L32.781168815010915,10.163988892093009 L32.781168815010915,6.913880057847692 zM32.781168815010915,5.708814263723 L33.936987335849714,5.708814263723 L33.936987335849714,6.554367249269247 L32.781168815010915,6.554367249269247 L32.781168815010915,5.708814263723 z" class="ps023" id="path23383" fill="#dadada" fill-opacity="1"/>
      <path style="font-size: 3.4942px; letter-spacing: 0px; word-spacing: 0.10098px; fill-rule: nonzero; stroke: none; stroke-width: 0.011; stroke-linecap: butt; stroke-linejoin: miter; stroke-miterlimit: 4; stroke-dasharray: none; font-family: fnt1, FranklinGothic, Arial;" d="M36.16139307339873,8.156847341253403 C36.07416102104312,7.766677909532106 35.88879524799695,7.747170088155748 35.681619404237495,7.747170088155748 C35.51260837837488,7.747170088155748 35.458088065067464,7.805694699713708 35.403569248214176,7.854187340310951 C35.25636492604309,7.98238613014599 35.207297317470776,8.141240778171278 35.207297317470776,8.537540922559069 C35.207297317470776,8.56764066020425 35.19094144794666,9.09715538866928 35.47444430870509,9.298370434720107 C35.55622365632561,9.35355258586305 35.59438772599543,9.35689619370698 35.69252331725357,9.35689619370698 C35.725235056301784,9.35689619370698 35.823370273446415,9.360240948979824 35.91060232580203,9.317878638572763 C36.025093412470774,9.263255285309034 36.14503720387462,9.162926396270612 36.166845404020286,8.88813591364847 L37.28449985518931,8.878661210661749 C37.273596316286785,8.952234734851533 37.22997991599541,9.211419036867856 37.120941159948245,9.42489780310948 C36.8428906298114,9.991757517834156 36.27588416006746,10.22808809577237 35.703427978496705,10.22808809577237 C35.46899310042411,10.22808809577237 35.30543290872894,10.191859175365924 35.207297317470776,10.173464742508644 C34.75478305673619,10.05752852543549 34.35678948342256,9.734245019739808 34.182326875165415,9.2710589493264 C34.133259266593114,9.131155619656074 34.06783466615609,8.917676853414445 34.06783466615609,8.56373825448111 C34.06783466615609,8.417704212144296 34.073286996777654,8.039795823279668 34.27500976168848,7.66189011174916 C34.302269544228665,7.601134898390036 34.39495430131939,7.448412492936442 34.52580050928516,7.308507250884599 C34.951054987479594,6.8815516307828615 35.583484187092864,6.869289058020983 35.73613971754493,6.869289058020983 C36.324952142753325,6.869289058020983 36.690235099359334,7.095029632071879 36.87015003823803,7.2655899673613735 C36.92467035154544,7.320770206122793 37.03370910759261,7.467920314312793 37.120941159948245,7.669135360363621 C37.19181696866625,7.833564218034022 37.22997991599541,7.980156675773735 37.25724044676266,8.156847341253403 L36.16139307339873,8.156847341253403 " class="ps023" id="path23385" fill="#dadada" fill-opacity="1"/>
      <path style="font-size: 3.4942px; letter-spacing: 0px; word-spacing: 0.10098px; fill-rule: nonzero; stroke: none; stroke-width: 0.011; stroke-linecap: butt; stroke-linejoin: miter; stroke-miterlimit: 4; stroke-dasharray: none; font-family: fnt1, FranklinGothic, Arial;" d="M22.678660483630793,9.210304500919875 L22.678660483630793,8.33130816988452 C22.678660483630793,8.056517687262376 22.678660483630793,7.68697252524692 22.564168349444163,7.425001118408042 C22.487840883508962,7.256113351993132 22.433320981726432,7.162473208547789 22.275214617106947,7.056570109864257 C21.882671541258556,6.787911487337516 21.304763141300295,6.83863243487811 21.173914838298728,6.83863243487811 C20.48151426674248,6.83863243487811 20.127135896556883,7.025356983700024 19.903604894089014,7.281754180893787 C19.723689992621683,7.494117646234832 19.685526259654075,7.702021437878746 19.63645779062064,7.958418252596214 L20.732305201395935,7.958418252596214 C20.73775756942884,7.858088598605175 20.754113700832427,7.820744759774444 20.77592036711262,7.776711027921729 C20.835892599516715,7.695889577783345 20.92312386623391,7.593888884822958 21.14120250066887,7.593888884822958 C21.386542039984576,7.593888884822958 21.544649339887904,7.721530406684007 21.544649339887904,7.846384441246201 C21.544649339887904,7.914941406241176 21.539197907138814,8.026976365020095 21.490130410800557,8.064321351279743 C21.44106287705094,8.102222840560763 21.31566596938712,8.146814987816384 21.293858405234456,8.152945700482874 C21.239339438735744,8.16242155089851 21.16846340554964,8.179142267452304 21.0812312035486,8.202552494551796 L20.508774198928062,8.276684816620785 C20.165299629524487,8.358063152256845 19.898153461339938,8.429408369503285 19.67462152358824,8.735412360765972 C19.511062790935828,8.947775826107014 19.511062790935828,9.141745623543386 19.511062790935828,9.241517627084122 C19.511062790935828,9.666244940242512 19.690977692403173,9.911493335669778 19.810921259338894,10.017954084803598 C20.08897216358929,10.254843078144706 20.486966634775392,10.24592487817936 20.5851026001471,10.24592487817936 C21.124847304549117,10.24592487817936 21.408349604137257,10.003461675193147 21.577360704822585,9.872477310440772 L21.626428238572196,10.179038952153753 L22.809507862571927,10.179038952153753 C22.744084186195323,9.966675104336394 22.673208115597873,9.855754681505449 22.678660483630793,9.210304500919875 zM21.233887070702817,9.508504445688894 C21.157558669483794,9.53358762413926 21.026711301766056,9.528013414494158 20.993999936831393,9.52634084561958 C20.797728866549114,9.512963736909722 20.694141468428324,9.330141211334649 20.694141468428324,9.223680844677137 C20.694141468428324,8.986234965838333 20.879508737928585,8.947775826107014 20.939480970332678,8.93551401829774 L21.064875970017493,8.899840835960065 C21.222983307332186,8.843545678774367 21.386542039984576,8.796167574125098 21.544649339887904,8.739871269510493 L21.550101707920824,9.152893277880985 C21.50103323888738,9.245976535828643 21.44651333710485,9.4460774284078 21.233887070702817,9.508504445688894 " class="ps023" id="path23387" fill="#dadada" fill-opacity="1"/>
      <path style="font-size: 3.4942px; letter-spacing: 0px; word-spacing: 0.10098px; fill-rule: nonzero; stroke: none; stroke-width: 0.011; stroke-linecap: butt; stroke-linejoin: miter; stroke-miterlimit: 4; stroke-dasharray: none; font-family: fnt1, FranklinGothic, Arial;" d="M31.38546383370503,10.152284734734023 L31.38546383370503,8.57934481756323 C31.38546383370503,8.765510950982243 31.439983772898923,7.979041374873145 31.276423955317274,7.899892493609344 C31.221905138463985,7.873696309116226 31.11831646835719,7.819071808423576 30.998373051066892,7.821860060675039 C30.856621807744432,7.8246460180686785 30.693062364276308,7.8948770818434415 30.643994755704,8.023632757176163 C30.57857090349405,8.180815218803177 30.545859538559355,8.287832470958383 30.55131186918095,8.61446034945062 L30.540407207937793,10.158415829876809 L29.39004101772055,10.153398123253092 L29.39004101772055,6.918337819163294 L30.496792304100584,6.918337819163294 L30.513147425397595,7.294017136131982 C30.66580332996321,7.102833296089246 30.845718268841907,6.855910801882204 31.505407250995347,6.855910801882204 C31.97972821542149,6.855910801882204 32.34501042380044,7.062143554556765 32.49221512008505,7.558774500364486 C32.524926485019726,7.684185420424364 32.53037769330071,7.766120259081813 32.546733936938324,8.023632757176163 L32.546733936938324,10.153398123253092 L31.38546383370503,10.152284734734023 " class="ps023 ps14 ps23" id="path23389" fill="#dadada" fill-opacity="1"/>
    </g>
  </g></g></svg>