<svg id="Layer_2" enable-background="new 0 0 512 512" height="512" viewBox="0 0 512 512" width="512" xmlns="http://www.w3.org/2000/svg"><g><g><path d="m156 10h200v492h-200z" fill="#6e83b7"/></g><g><circle cx="191" cy="45" fill="#ffb0aa" r="15"/></g><g><circle cx="191" cy="100" fill="#edeff1" r="15"/></g><g><circle cx="234.333" cy="100" fill="#edeff1" r="15"/></g><g><g><path d="m316 380c0 13.68-4.59 26.29-12.3 36.38l-21.6-21.6c2.48-4.36 3.9-9.41 3.9-14.78s-1.42-10.42-3.9-14.78l21.6-21.6c7.71 10.09 12.3 22.7 12.3 36.38z" fill="#80d6fb"/></g><g><path d="m292.38 332.3-21.6 21.6c-4.36-2.48-9.41-3.9-14.78-3.9s-10.42 1.42-14.78 3.9l-21.6-21.6c10.09-7.71 22.7-12.3 36.38-12.3s26.29 4.59 36.38 12.3z" fill="#80d6fb"/></g><g><path d="m292.38 427.7c-10.09 7.71-22.7 12.3-36.38 12.3s-26.29-4.59-36.38-12.3l21.6-21.6c4.36 2.48 9.41 3.9 14.78 3.9s10.42-1.42 14.78-3.9z" fill="#80d6fb"/></g><g><path d="m226 380c0 5.37 1.42 10.42 3.9 14.78l-21.6 21.6c-7.71-10.09-12.3-22.7-12.3-36.38s4.59-26.29 12.3-36.38l21.6 21.6c-2.48 4.36-3.9 9.41-3.9 14.78z" fill="#80d6fb"/></g><g><circle cx="256" cy="380" fill="#80d6fb" r="20"/></g></g><g><circle cx="277.667" cy="100" fill="#edeff1" r="15"/></g><g><circle cx="321" cy="100" fill="#edeff1" r="15"/></g><g><circle cx="191" cy="150" fill="#edeff1" r="15"/></g><g><circle cx="234.333" cy="150" fill="#edeff1" r="15"/></g><g><circle cx="277.667" cy="150" fill="#edeff1" r="15"/></g><g><circle cx="321" cy="150" fill="#edeff1" r="15"/></g><g><circle cx="191" cy="200" fill="#edeff1" r="15"/></g><g><circle cx="234.333" cy="200" fill="#edeff1" r="15"/></g><g><circle cx="277.667" cy="200" fill="#edeff1" r="15"/></g><g><circle cx="321" cy="200" fill="#edeff1" r="15"/></g><g><circle cx="191" cy="250" fill="#edeff1" r="15"/></g><g><circle cx="234.333" cy="250" fill="#edeff1" r="15"/></g><g><circle cx="277.667" cy="250" fill="#edeff1" r="15"/></g><g><circle cx="321" cy="250" fill="#edeff1" r="15"/></g><g><circle cx="321" cy="300" fill="#466089" r="15"/></g><g><circle cx="191" cy="300" fill="#466089" r="15"/></g><g><path d="m176 462h40v20h-40z" fill="#466089"/></g><g><path d="m236 462h40v20h-40z" fill="#466089"/></g><g><path d="m296 462h40v20h-40z" fill="#466089"/></g></g></svg>