<svg xmlns="http://www.w3.org/2000/svg" xmlns:xlink="http://www.w3.org/1999/xlink" version="1.1" width="142" height="22" style=""><rect id="backgroundrect" width="100%" height="100%" x="0" y="0" fill="none" stroke="none"/>
	
<g class="currentLayer" style=""><title>Layer 1</title><path fill="#dadada" d="M82.68275550803783,12.198032110651825 h-0.027139826632073396 l-1.1540651049510053,-3.726947731196095 h-1.861692511266163 v4.698501493784771 h1.2332436817308159 l-0.06946799660870136,-3.855702298353339 h0.027139826632073396 l1.2392194233745744,3.855702298353339 h1.7862487730137038 V8.470853222243601 h-1.2414603264909845 L82.68275550803783,12.198032110651825 zM58.997654513762896,8.470853222243601 l-0.9287298471342506,4.74820029439304 h1.3552484069575672 L60.11088538414821,8.909127296444915 h0.028633762043013218 l0.6685360963955665,4.310157377403858 h1.3472807514325544 L61.23083896388277,8.470853222243601 H58.997654513762896 zM66.5783807673418,8.471315536667861 L65.95889555027212,12.101639553192996 h-0.028135783572699937 L65.3142624204516,8.471315536667861 h-2.0459445452820737 l-0.11104919887985966,4.747737979968779 h1.2544077667191291 l0.03137264362973625,-4.269704865280846 h0.028384772807856524 l0.837848776302079,4.269704865280846 h1.2723349916504074 l0.8380977655372355,-4.268317922008057 l0.027886794337543316,-0.0013869432727889781 l0.03261758980551937,4.269704865280846 h1.2549057451894434 L68.62432531262388,8.471315536667861 H66.5783807673418 zM54.96104103340354,9.692287931146419 c-0.02365397733988047,-0.0970860290952283 -0.017927224931277786,-0.19417205819045633 -0.005228773938289378,-0.24780053140496405 c0.03610343909771226,-0.1525637600067873 0.14466274562600573,-0.31969042437785805 0.4586381711585236,-0.31969042437785805 c0.2943052759551442,0 0.4656098697429091,0.17244328025009595 0.4656098697429091,0.4299524145645821 v0.2933385021948679 h1.2526648420730329 V9.516608449926485 c0,-1.0358154675612297 -0.9815155649874555,-1.1973943588411444 -1.6921308421244952,-1.1973943588411444 c-0.8916304510959138,0 -1.6196749746939156,0.280393698315504 -1.7538801724433406,1.0550015161681445 c-0.036601417568025506,0.2080414909183462 -0.04108322380084505,0.3987461909268299 0.012200472522675206,0.6391496915435858 c0.21786558076205695,0.9703979765280176 1.999881536778096,1.2514851464799148 2.2585813521058418,1.8652075446890344 c0.048552900855544104,0.11442282000509042 0.032866579040676004,0.2628257501935104 0.008963612465638907,0.35251474850053066 c-0.04058524533053166,0.15533764655236523 -0.15337736885648795,0.31691653783228024 -0.48826789014216254,0.31691653783228024 c-0.3132284578270484,0 -0.5044521904273443,-0.16990055091664924 -0.5044521904273443,-0.42902778571605543 l-0.0007469677054699089,-0.46069632377807035 H53.627952668374895 l-0.0007469677054699089,0.367077652864815 c0,1.0591623459865127 0.8804259355138638,1.3774658270915803 1.8233481690520414,1.3774658270915803 c0.9088107083217191,0 1.6537864999103746,-0.29079577286142183 1.7742972897261844,-1.0834338532603185 c0.06125135184853252,-0.41099752316979987 0.016184300285181374,-0.6805268325151217 -0.005477763173446003,-0.7810802197923228 C57.0069855786856,10.543639943426715 55.10420984361859,10.249607969595454 54.96104103340354,9.692287931146419 zM71.28228539792099,9.70338347732873 c-0.024649934280507026,-0.09477445697391326 -0.017678235696121213,-0.19093585722061535 -0.00597574164375928,-0.24340854437446532 c0.035107482157085805,-0.1516391311582613 0.14267083174475237,-0.31691653783228024 0.4539073756905476,-0.31691653783228024 c0.29081942666295135,0 0.4616260419804036,0.16990055091664924 0.4616260419804036,0.4239423270491637 v0.2912580872856848 h1.2392194233745744 V9.529784411017976 c0,-1.0231018208939977 -0.9725519525218188,-1.1842183977496508 -1.6739546279580608,-1.1842183977496508 c-0.8839117848060567,0 -1.6057315775251428,0.2741524535879536 -1.7369489044526907,1.0439059699858324 c-0.036601417568025506,0.20711686206982072 -0.042328169976628194,0.3964346188055147 0.011453504817205274,0.6333707612402968 c0.21587366688080353,0.9602270591942312 1.9802113872007223,1.2392338142369455 2.236919288647213,1.8462526532942507 c0.046809976209447685,0.11442282000509042 0.03261758980551937,0.26028302086006416 0.009710580171108825,0.3492785475306895 c-0.0408342345656884,0.15649343261302268 -0.15362635809164443,0.3132180224381765 -0.4837860839093439,0.3132180224381765 c-0.3117345224161081,0 -0.4994724057242119,-0.16735782158320298 -0.4994724057242119,-0.42371116983703144 l-0.0009959569406265479,-0.45722896559609666 h-1.3330883650286267 v0.3638414518949737 c0,1.0482979570163307 0.8727072692240081,1.3629029227272966 1.8064169010613904,1.3629029227272966 c0.8976061927396713,0 1.6363572534494089,-0.28825304352797504 1.75462714014881,-1.0725694642901364 c0.060753373378219254,-0.4056809072907748 0.015935311050024742,-0.672898644514784 -0.005228773938289378,-0.7729897173677199 C73.30631889050926,10.547800773245083 71.4217193696087,10.255386899898745 71.28228539792099,9.70338347732873 zM76.97144043201492,11.98236243173314 c0.0009959569406265479,0.06033203236632043 -0.0009959569406265479,0.1301415104300323 -0.011702494052361914,0.1809960970989614 c-0.024898923515663657,0.11812133539919442 -0.13221328386817377,0.3416503595303507 -0.4810472023226197,0.3416503595303507 c-0.3475889722786645,0 -0.4561482788069572,-0.2235290241311568 -0.4810472023226197,-0.3416503595303507 c-0.010706537111735356,-0.0508545866689292 -0.013196429463301726,-0.12066406473264088 -0.012698450992988457,-0.1809960970989614 V8.470390907819336 h-1.2678531854175883 v3.4030964769998695 c-0.0019919138812530966,0.08807089782209988 0.0072206878195424555,0.26629310837548337 0.011702494052361914,0.3136803368624394 c0.08615027536419614,0.8851009652514945 0.827142239190343,1.1710424366581555 1.7496473554456777,1.1710424366581555 c0.9215091593147086,0 1.6622521339056981,-0.28594147140666 1.7511412908566175,-1.1710424366581555 c0.00448180623281946,-0.0473872284869567 0.01419238640392827,-0.22584059625247124 0.012698450992988457,-0.3136803368624394 V8.470390907819336 h-1.2710900454746237 V11.98236243173314 zM86.95341886944443,10.54965003094213 v0.6953208940915389 h0.51366479212814 v0.6886173349397249 c0.00149393541093982,0.05986971794205742 -0.0009959569406265479,0.12598068061166517 -0.011702494052361914,0.18030262546256673 c-0.022409031164097336,0.12782993830871708 -0.15038949803460844,0.34349961722740247 -0.5121708567171996,0.34349961722740247 c-0.3627773156232189,0 -0.4902598040234151,-0.21590083613081704 -0.51366479212814,-0.34349961722740247 c-0.009710580171108825,-0.05432194485090161 -0.012698450992988457,-0.12043290752050953 -0.011204515582048635,-0.18030262546256673 V9.761172780361603 c0,-0.07720650885191972 0.005228773938289378,-0.16157889127991534 0.0204171172828442,-0.22283555249476175 c0.026641848161760084,-0.11696554933853691 0.13470317621973987,-0.3446554032880599 0.4994724057242119,-0.3446554032880599 c0.38369241137637655,0 0.4785573099710541,0.24040350061675567 0.5014643196054638,0.3446554032880599 c0.014690364874241538,0.0658798054574764 0.015686321814868086,0.17937799661404083 0.015686321814868086,0.17891568218977763 v0.2674488944361406 h1.2643673361253942 V9.826127956970558 c-0.000497978470313274,0 0.00448180623281946,-0.16227236291631011 -0.010208558641422115,-0.3104441358925986 c-0.09287298471342555,-0.8929603104639666 -0.8724582799888506,-1.1740474804158636 -1.760851871027727,-1.1740474804158636 c-0.88889156950919,0 -1.6500516613830238,0.2833987420732135 -1.7603538925574116,1.1740474804158636 c-0.010706537111735356,0.07674419442765666 -0.02191105269378402,0.22607175346460281 -0.02191105269378402,0.3104441358925986 l-0.000497978470313274,1.997660627240381 c0.000497978470313274,0.08945784109488872 0.0034858492921929145,0.1555688037644968 0.017429246460964554,0.3136803368624394 c0.08266442607200333,0.864527973371792 0.8764421077513568,1.1742786376279952 1.7643377203199184,1.1742786376279952 c0.8883935910388766,0 1.6821712727182296,-0.3097506642562036 1.7653336772605441,-1.1742786376279952 c0.013694407933614974,-0.1583426903100744 0.015686321814868086,-0.2244536529796822 0.015935311050024742,-0.3136803368624394 V10.54965003094213 H86.95341886944443 z" id="svg_1" class="" fill-opacity="1"/></g></svg>