<svg xmlns="http://www.w3.org/2000/svg" xmlns:xlink="http://www.w3.org/1999/xlink" version="1.1" style="" xml:space="preserve" width="22.024691451051865" height="7.518518588288941"><rect id="backgroundrect" width="100%" height="100%" x="0" y="0" fill="none" stroke="none" class="" style=""/>
















<g class="currentLayer" style=""><title>Layer 1</title><g id="svg_1" class="">
	<g id="svg_2">
		<path style="fill:#D6D6D8;" d="M14.698676822503671,2.8835144800013586 v0.16728081164050573 c0,0.007864559331198635 0.005696390331218512,0.014239756387204889 0.012723561309616244,0.014239756387204889 h0.052776812983255185 c0.05498396137369877,0 0.07249508720670399,0.009117803196909267 0.07249508720670399,0.03189414823460684 c0,0.01349507524960871 -0.007303064527203224,0.029224193912005942 -0.021990338743023065,0.051546465085315483 c-0.000324580645653477,0.0005085627281144601 -0.0007140774204376515,0.001017125456228919 -0.001087345162939147,0.0014711993206168318 l-0.258966668134626,0.3094059311939212 c-0.03312345488893733,0.04239233597925531 -0.06855143236201407,0.03799690097198038 -0.09748779692202122,0.004159316597793268 c-0.0004057258070668475,-0.000490399773538945 -0.24449037133848003,-0.29818122526625196 -0.24486363908098174,-0.2987079509489413 c-0.012528812922224184,-0.0180358138934878 -0.03227954521023826,-0.036162442559853215 -0.03227954521023826,-0.05879348396094674 c0,-0.02731708368157675 0.027524438751414925,-0.04099378847694055 0.09253794207580608,-0.04099378847694055 h0.051218825884118586 c0.007027170978397781,0 0.012723561309616244,-0.006375197056006267 0.012723561309616244,-0.014239756387204889 v-0.16728081164050573 c0,-0.007864559331198635 -0.005696390331218512,-0.014239756387204889 -0.012723561309616244,-0.014239756387204889 h-0.8722617980968633 c-0.007027170978397781,0 -0.012723561309616244,0.006375197056006267 -0.012723561309616244,0.014239756387204889 v0.16731713754965666 c0,0.007846396376623111 0.005777535492631888,0.01420343047805386 0.012804706471029626,0.01422159343262935 c0.20925714225279596,0.0008899847742003079 0.2001364261099322,0.024810595950155376 0.2785551100998123,0.12743128930182293 l0.4802332942765982,0.5945098291657998 c0.0021097741967476056,0.002615465458874362 0.0032782645211001196,0.006011937964495961 0.0032782645211001196,0.009553714106721616 v0.29729124049205174 c0,0.07744683831000179 -0.03503848069829269,0.10469127017327637 -0.1350093195595629,0.10469127017327637 h-0.14232861311904882 c-0.007027170978397781,0 -0.012723561309616244,0.006375197056006267 -0.012723561309616244,0.014239756387204889 v0.16041521481096063 c0,0.007864559331198635 0.005696390331218512,0.014239756387204889 0.012723561309616244,0.014239756387204889 h0.967152949853655 c0.007027170978397781,0 0.012723561309616244,-0.006375197056006267 0.012723561309616244,-0.014239756387204889 v-0.16041521481096063 c0,-0.007864559331198635 -0.005696390331218512,-0.014239756387204889 -0.012723561309616244,-0.014239756387204889 h-0.14227992602220121 c-0.10005198402268378,0 -0.13504177762412833,-0.027244431863274732 -0.13504177762412833,-0.10469127017327637 v-0.29718226276459847 c0,-0.0035962650059522556 0.0012171774212005341,-0.007047226375300377 0.003391867747078843,-0.009680854788750257 c0.0005193290330455617,-0.0006175404555675587 0.40702412964945767,-0.4918164839958303 0.4074947715856552,-0.4924703503605495 c0.1496803647431004,-0.21128965057698199 0.1697556776767679,-0.22947076810707345 0.2772243294526333,-0.22947076810707345 h0.08043108399293122 c0.007027170978397781,0 0.012723561309616244,-0.006375197056006267 0.012723561309616244,-0.014239756387204889 v-0.16728081164050573 c0,-0.007864559331198635 -0.005696390331218512,-0.014239756387204889 -0.012723561309616244,-0.014239756387204889 h-0.6832747171651306 C14.704373212834888,2.8692747236141556 14.698676822503671,2.875649920670162 14.698676822503671,2.8835144800013586 z" id="svg_3"/>
		<path style="fill:#D6D6D8;" d="M8.735594803784029,2.869220234750429 L8.735594803784029,2.869220234750429 c0.007027170978397781,0 0.012723561309616244,0.006375197056006267 0.012723561309616244,0.014239756387204889 v0.5177713460842437 c0,0.007864559331198635 -0.005696390331218512,0.014239756387204889 -0.012723561309616244,0.014239756387204889 l0,0 H8.55629645512505 c-0.004625274200562019,0 -0.008536470980686437,-0.003759731597131903 -0.009510212917646891,-0.008827195923700968 c-0.019507296803773905,-0.10271150812454488 -0.07871080657096782,-0.14441365182993085 -0.13293200342738154,-0.2001194335130396 c-0.2885521939859396,-0.29674635185478593 -0.936447620774838,-0.20337060238205665 -0.936447620774838,0.013204467976400442 c0,0.33463427509931315 1.3506125246286704,0.06832903511309274 1.3506125246286704,0.7010718836603532 c0,0.6049898539558718 -1.0005360692591159,0.60666084577682 -1.4214847086071076,0.35648430945365855 c-0.04664223878040458,-0.030186830504508325 -0.06171900977100851,0.021922686172648274 -0.07116430655952442,0.09288534969919068 c-0.0013145516148965796,0.00991697319823195 -0.008974654852318648,0.01725480684674059 -0.017933080672354565,0.01725480684674059 H7.1161159013283015 l0,0 c-0.007027170978397781,0 -0.012723561309616244,-0.006375197056006267 -0.012723561309616244,-0.014239756387204889 v-0.5360069524780624 c0,-0.007864559331198635 0.005696390331218512,-0.014239756387204889 0.012723561309616244,-0.014239756387204889 l0,0 h0.1880782551239059 c0.009591358079060253,0 0.018046683898333273,0.006792945011243158 0.021357406483998823,0.016855221846079238 c0.04271481296799751,0.12950186612343179 0.08825347755318025,0.1648106498182356 0.14007277763175727,0.21303329421623107 c0.24182881004412143,0.22507533309979846 0.9724923014746543,0.2427115619926247 0.9724923014746543,-0.02510120322336364 c0,-0.11379091041561011 -0.10901040984271967,-0.14107166818803565 -0.4602553555366257,-0.20255326942615814 l0,0 l-0.29817601012956535,-0.054579678499426604 l0,0 C7.343160062962904,3.713670481829909 7.098134133559098,3.6294125355540876 7.098134133559098,3.3289972668750494 c0,-0.3118397671070396 0.3099582875667866,-0.5075819285673789 0.8000101463743997,-0.5075819285673789 c0.20649820676474093,0 0.3793536296074989,0.030895185732953457 0.5451331943750115,0.13582257431571126 c0.04425657103485153,0.03207577778036192 0.08101532915510753,0.03703426437947803 0.08323870657783394,-0.07426832125928659 c0.0001460612905440651,-0.007573952057990356 0.005550329040674461,-0.013731193659090384 0.012317835502549437,-0.013731193659090384 L8.735594803784029,2.869220234750429 L8.735594803784029,2.869220234750429 L8.735594803784029,2.869220234750429 z" id="svg_4"/>
		<path style="fill:#D6D6D8;" d="M10.089128554223581,2.810989802381323 c-0.616605852547908,0 -1.0056969015250068,0.30953307187594903 -1.0056969015250068,0.801186089280599 c0,0.0017436436392495815 0.00009737419369604336,0.0034327984147726055 0.00011360322597871698,0.005158279099446669 c-0.00001622903228267392,0.0017254806846740617 -0.00011360322597871698,0.0034327984147726055 -0.00011360322597871698,0.005158279099446669 c0,0.49165301740465045 0.3890910489771027,0.801186089280599 1.0056969015250068,0.801186089280599 c0.731848210787173,0 1.0358504435062146,-0.38627155495750554 1.0358504435062146,-0.7864922590290059 C11.12499522676207,3.0341398622961173 10.630610216334986,2.810989802381323 10.089128554223581,2.810989802381323 zM10.093997263908383,4.225647845404561 c-0.3285729875950134,0 -0.5471131363134977,-0.2049144535209758 -0.5493689718007865,-0.6083136746431916 c0.002255835487291664,-0.40250923634801655 0.2199520745270775,-0.6083136746431916 0.5493689718007865,-0.6083136746431916 c0.36284870377601985,0 0.5575646331035391,0.2201350094552582 0.560924042786052,0.6083136746431916 C10.651578126044202,4.004350406856469 10.457917083815053,4.225647845404561 10.093997263908383,4.225647845404561 z" id="svg_5"/>
		<path style="fill:#D6D6D8;" d="M13.27300502356764,2.8807718738604575 h-0.765507223741435 c-0.007027170978397781,0 -0.012723561309616244,0.006375197056006267 -0.012723561309616244,0.014239756387204889 v0.16045154072011153 c0,0.007864559331198635 0.005696390331218512,0.014239756387204889 0.012723561309616244,0.014239756387204889 h0.1115908259756648 c0.10584574854759812,0 0.13875822601686089,0.02731708368157675 0.13875822601686089,0.10694347654064015 v0.5746213939056095 c-0.00008114516141336943,0.012405297975077698 -0.013324035504075168,0.018762332076508445 -0.02142232261312948,0.010280232289742302 l-0.8358600786868274,-0.8769074469059263 c-0.002353209680987708,-0.0024701618222702356 -0.005469183879261096,-0.0038505463700094847 -0.008698761303513129,-0.0038505463700094847 h-0.6924765784694061 c-0.007027170978397781,0 -0.012723561309616244,0.006375197056006267 -0.012723561309616244,0.014239756387204889 v0.16045154072011153 c0,0.007864559331198635 0.005696390331218512,0.014239756387204889 0.012723561309616244,0.014239756387204889 h0.123373103412886 c0.10579706145075025,0 0.14283171311981177,0.02731708368157675 0.14283171311981177,0.10694347654064015 v0.9286173785824212 c0,0.07744683831000179 -0.03703465166906161,0.10697980244979141 -0.14283171311981177,0.10697980244979141 h-0.123373103412886 c-0.007027170978397781,0 -0.012723561309616244,0.006375197056006267 -0.012723561309616244,0.014239756387204889 v0.15818117139817192 c0,0.007864559331198635 0.005696390331218512,0.014239756387204889 0.012723561309616244,0.014239756387204889 h0.7958879721746007 c0.007027170978397781,0 0.012723561309616244,-0.006375197056006267 0.012723561309616244,-0.014239756387204889 v-0.15818117139817192 c0,-0.007864559331198635 -0.005696390331218512,-0.014239756387204889 -0.012723561309616244,-0.014239756387204889 h-0.1248499453506095 c-0.10576460338618532,0 -0.14283171311981177,-0.029532964139789702 -0.14283171311981177,-0.10697980244979141 v-0.7384512441767666 c0,-0.012496112747955257 0.013356493568640573,-0.0189257986676881 0.02147100970997745,-0.010334721153468845 l0.9773447821271751,1.035887788305421 c0.0023369806487050365,0.0024701618222702356 0.005436725814695739,0.003868709324584997 0.008650074206665114,0.003905035233736035 l0.2918304585070397,0.0025246506859967735 c0.007059629042963108,0.00005448886372654949 0.012820935503312316,-0.006338871146855237 0.012820935503312316,-0.014239756387204889 c0,-0.7078103398078707 0,-0.7603557673948392 0,-1.2079091310901346 c0,-0.07962639285906384 0.03703465166906161,-0.10694347654064015 0.14291285828122555,-0.10694347654064015 h0.09037948078221054 c0.007027170978397781,0 0.012723561309616244,-0.006375197056006267 0.012723561309616244,-0.014239756387204889 v-0.16045154072011153 C13.285728584877246,2.8871470709164626 13.28003219454603,2.8807718738604575 13.27300502356764,2.8807718738604575 z" id="svg_6"/>
	</g>
	<g id="svg_7">
		<path style="fill:#C2C2C4;" d="M8.274901264375774,4.306836252357118 c0.3204909295182416,-0.003705242733405348 0.4307185167821606,-0.08680075991639273 0.4307185167821606,-0.2073846153432456 c0,-0.11202910382178499 -0.09427444853005228,-0.1449222145580449 -0.3894805457518875,-0.2013000255604477 c0.08869166142481232,0.030386623004839023 0.12197740663657625,0.06682150988332484 0.12197740663657625,0.12957451794173375 c0,0.20507792011215512 -0.3966375489885463,0.21176188739594523 -0.5766662041002463,0.18537111439771978 C7.975913802632074,4.26992912865967 8.12892111899312,4.308561733041791 8.274901264375774,4.306836252357118 z" id="svg_8"/>
		<path style="fill:#C2C2C4;" d="M8.413870467812298,3.206506301217767 c0.054221196856413134,0.0557057816831088 0.113424706623607,0.09740792538849424 0.13293200342738154,0.2001194335130396 c0.0009575129046777603,0.005067464326569089 0.004868709684802138,0.008827195923700968 0.009510212917646891,0.008827195923700968 h0.17929834865897976 c0.007027170978397781,0 0.012723561309616244,-0.006375197056006267 0.012723561309616244,-0.014239756387204889 v-0.10018685743854837 c-0.02104905487062791,-0.02510120322336364 -0.04440263232539562,-0.0471147041688894 -0.0669285291337466,-0.07163469284583668 c-0.10047393886203318,-0.10946812722663704 -0.31799165854670924,-0.2006098332865778 -0.5009902265661388,-0.2006098332865778 c-0.03838166134852367,0 -0.07575712269552136,0.0023248581856660983 -0.11150968081425162,0.006720293192941085 C8.206885390079087,3.0660884993944513 8.341099487056793,3.1316749283666394 8.413870467812298,3.206506301217767 z" id="svg_9"/>
		<path style="fill:#C2C2C4;" d="M7.370911708166273,3.9443944938026894 c-0.015547412926801528,-0.026645054362282688 -0.03062418391740539,-0.05995591305377962 -0.04536014523007332,-0.10461861835497425 c-0.0033269516179481417,-0.010062276834836098 -0.011782277437221206,-0.016855221846079238 -0.021357406483998823,-0.016855221846079238 H7.1161159013283015 c-0.007027170978397781,0 -0.012723561309616244,0.006375197056006267 -0.012723561309616244,0.014239756387204889 v0.5360069524780624 c0,0.007864559331198635 0.005696390331218512,0.014239756387204889 0.012723561309616244,0.014239756387204889 h0.2013373744988508 c0.00895842582003593,0 0.016618529057458004,-0.007337833648508645 0.017933080672354565,-0.01725480684674059 c0.006459154848504184,-0.048476925762053064 0.015547412926801528,-0.08810849264583004 0.03552535166677295,-0.09875198402708237 V3.9443944938026894 z" id="svg_10"/>
		<path style="fill:#C2C2C4;" d="M7.679669047344143,3.770575018515001 l0.06834045494233949,0.012514275702530768 c-0.2297057229289637,-0.06424237033360151 -0.3823560005797932,-0.17274786096773595 -0.3823560005797932,-0.42390519683797623 c0,-0.29956160981399127 0.2548282649025445,-0.49801005150608124 0.6676948461737658,-0.5324106874721096 c-0.04357495167897928,-0.00366891682425432 -0.08849691303742017,-0.0053580715997773466 -0.13520406794695508,-0.0053580715997773466 C7.408092421125884,2.8213971753530944 7.098134133559098,3.0171574997680084 7.098134133559098,3.3289972668750494 C7.098134133559098,3.6294125355540876 7.343160062962904,3.713670481829909 7.679669047344143,3.770575018515001 z" id="svg_11"/>
		<path style="fill:#C2C2C4;" d="M10.230613257663924,4.2137511101576 c0.040945848449186105,0.007846396376623111 0.08458571625729579,0.011914898201538762 0.13091960342432954,0.011914898201538762 c0.36284870377601985,0 0.5575646331035391,-0.2201350094552582 0.560924042786052,-0.6083136746431916 c-0.003343180650230808,-0.3870162360951009 -0.19700422287937663,-0.6083136746431916 -0.560924042786052,-0.6083136746431916 c-0.046333887167033724,0 -0.0899737549751436,0.004068501824915683 -0.13091960342432954,0.011914898201538762 c0.2880490939851763,0.05279970895102613 0.42154911354245,0.27703954614035076 0.4243080490305042,0.5964169393962284 C10.652178600238653,3.9346046612864862 10.520269025845082,4.160660793933364 10.230613257663924,4.2137511101576 z" id="svg_12"/>
		<path style="fill:#C2C2C4;" d="M9.350967249878448,3.6224924498608155 c0,-0.0017436436392495815 0.00009737419369604336,-0.0034327984147726055 0.00011360322597871698,-0.005158279099446669 c-0.00001622903228267392,-0.0017254806846740617 -0.00011360322597871698,-0.003414635460197084 -0.00011360322597871698,-0.005158279099446669 c0,-0.4557993450725824 0.3345452714750368,-0.7548705551130329 0.8746150077778516,-0.7961004619994545 c-0.04412673877659014,-0.0031603540961398667 -0.08940573884524992,-0.005085627281144602 -0.13643747440043924,-0.005085627281144602 c-0.616605852547908,0 -1.0056969015250068,0.30953307187594903 -1.0056969015250068,0.801186089280599 c0,0.0017436436392495815 0.00009737419369604336,0.0034327984147726055 0.00011360322597871698,0.005158279099446669 c-0.00001622903228267392,0.0017254806846740617 -0.00011360322597871698,0.0034327984147726055 -0.00011360322597871698,0.005158279099446669 c0,0.49165301740465045 0.3890910489771027,0.801186089280599 1.0056969015250068,0.801186089280599 c0.04703173555518851,0 0.09231073562384842,-0.001925273185004741 0.13643747440043924,-0.005085627281144602 C9.685512521353482,4.377363004973849 9.350967249878448,4.0782917949333966 9.350967249878448,3.6224924498608155 z" id="svg_13"/>
		<path style="fill:#C2C2C4;" d="M11.726102353480021,4.316172011008935 V2.9667371378663754 c0,-0.03547225028598358 -0.005128374201324938,-0.06371564465091151 -0.01655361292832735,-0.08594710105134355 h-0.5101434007735656 c-0.007027170978397781,0 -0.012723561309616244,0.006375197056006267 -0.012723561309616244,0.014239756387204889 v0.16045154072011153 c0,0.007864559331198635 0.005696390331218512,0.014239756387204889 0.012723561309616244,0.014239756387204889 h0.123373103412886 c0.10579706145075025,0 0.14283171311981177,0.02731708368157675 0.14283171311981177,0.10694347654064015 v0.9286173785824212 c0,0.07744683831000179 -0.03703465166906161,0.10697980244979141 -0.14283171311981177,0.10697980244979141 h-0.123373103412886 c-0.007027170978397781,0 -0.012723561309616244,0.006375197056006267 -0.012723561309616244,0.014239756387204889 v0.15818117139817192 c0,0.007864559331198635 0.005696390331218512,0.014239756387204889 0.012723561309616244,0.014239756387204889 h0.5109710814199826 C11.72116872766609,4.3769997458823395 11.726102353480021,4.349755314019064 11.726102353480021,4.316172011008935 z" id="svg_14"/>
		<path style="fill:#C2C2C4;" d="M14.477880838297889,3.7869943294512654 l-0.5638290395646521,-0.6693593649715022 l-0.19849729384938317,-0.2483602408656103 h-0.2640463552391023 c-0.007027170978397781,0 -0.012723561309616244,0.006375197056006267 -0.012723561309616244,0.014239756387204889 v0.16731713754965666 c0,0.007846396376623111 0.005777535492631888,0.01420343047805386 0.012804706471029626,0.01422159343262935 c0.20925714225279596,0.0008899847742003079 0.20015265514221542,0.024810595950155376 0.2785551100998123,0.12743128930182293 l0.4802332942765982,0.5945098291657998 c0.0021097741967476056,0.002615465458874362 0.0032782645211001196,0.006011937964495961 0.0032782645211001196,0.009553714106721616 v0.29729124049205174 c0,0.07744683831000179 -0.03503848069829269,0.10469127017327637 -0.1350093195595629,0.10469127017327637 h-0.14232861311904882 c-0.007027170978397781,0 -0.012723561309616244,0.006375197056006267 -0.012723561309616244,0.014239756387204889 v0.16041521481096063 c0,0.007864559331198635 0.005696390331218512,0.014239756387204889 0.012723561309616244,0.014239756387204889 h0.5444515750191379 c0.0002434354842401085,-0.0041411536432177515 0.00038949677478417293,-0.008409447968464087 0.00038949677478417293,-0.012895697748616656 v-0.5779633775475054 C14.481159102819,3.7930062674157616 14.479990612494646,3.7896097949101426 14.477880838297889,3.7869943294512654 z" id="svg_15"/>
	</g>
</g><g id="svg_16">
</g><g id="svg_17">
</g><g id="svg_18">
</g><g id="svg_19">
</g><g id="svg_20">
</g><g id="svg_21">
</g><g id="svg_22">
</g><g id="svg_23">
</g><g id="svg_24">
</g><g id="svg_25">
</g><g id="svg_26">
</g><g id="svg_27">
</g><g id="svg_28">
</g><g id="svg_29">
</g><g id="svg_30">
</g></g></svg>